<svg width="24" height="24" viewBox="0 0 24 24" fill="none" xmlns="http://www.w3.org/2000/svg">
<path fill-rule="evenodd" clip-rule="evenodd" d="M13.7898 12.0002L19.1574 6.63299C19.393 6.39539 19.525 6.07413 19.5243 5.7395C19.5237 5.40487 19.3905 5.08412 19.1539 4.84743C18.9174 4.61075 18.5967 4.4774 18.2621 4.47657C17.9275 4.47573 17.6061 4.60748 17.3684 4.84299L12.0007 10.2112L6.63304 4.84295C6.39528 4.60751 6.07396 4.4758 5.73935 4.47664C5.40475 4.47748 5.08409 4.6108 4.84752 4.84743C4.61095 5.08406 4.47771 5.40475 4.47695 5.73935C4.47619 6.07396 4.60798 6.39525 4.84348 6.63295L10.2116 12.0002L4.84348 17.3674C4.72594 17.4849 4.63269 17.6244 4.56907 17.7779C4.50544 17.9315 4.47268 18.096 4.47266 18.2622C4.47263 18.4284 4.50534 18.593 4.56892 18.7466C4.6325 18.9001 4.7257 19.0397 4.84321 19.1572C4.96071 19.2747 5.10022 19.368 5.25376 19.4316C5.4073 19.4952 5.57187 19.528 5.73807 19.528C5.90427 19.528 6.06885 19.4953 6.2224 19.4318C6.37596 19.3682 6.5155 19.275 6.63304 19.1575L12.0007 13.7893L17.3684 19.1575C17.6058 19.3947 17.9277 19.5279 18.2633 19.5278C18.5989 19.5277 18.9207 19.3943 19.1579 19.1569C19.3952 18.9195 19.5284 18.5976 19.5283 18.262C19.5282 17.9264 19.3948 17.6046 19.1574 17.3674L13.7898 12.0002Z" fill="white"/>
</svg>
