<svg width="16" height="16" viewBox="0 0 16 16" fill="none" xmlns="http://www.w3.org/2000/svg">
<path fill-rule="evenodd" clip-rule="evenodd" d="M1.94275 8.86571L11.7854 8.86571L8.13609 12.5004C7.80409 12.8284 7.80409 13.361 8.13609 13.689C8.46742 14.0177 9.00542 14.0177 9.33742 13.689L14.4361 8.61971C14.5094 8.54705 14.5621 8.46105 14.6034 8.37038C14.6168 8.34238 14.6241 8.31505 14.6334 8.28705C14.6561 8.21905 14.6701 8.15105 14.6748 8.07905C14.6768 8.04971 14.6808 8.02238 14.6794 7.99305C14.6761 7.90305 14.6608 7.81438 14.6274 7.72838C14.6248 7.72105 14.6248 7.71371 14.6214 7.70638C14.6214 7.70505 14.6214 7.70438 14.6208 7.70305C14.5808 7.60838 14.5221 7.52838 14.4541 7.45638C14.4468 7.44838 14.4441 7.43838 14.4368 7.43038L9.33809 2.37838C9.17209 2.21438 8.95475 2.13238 8.73742 2.13238C8.52009 2.13238 8.30342 2.21438 8.13742 2.37838C7.80542 2.70705 7.80542 3.23905 8.13742 3.56771L11.7868 7.18438L1.94409 7.18438C1.47475 7.18438 1.09542 7.56038 1.09542 8.02571C1.09409 8.48905 1.47342 8.86571 1.94275 8.86571Z" fill="white"/>
</svg>
