<svg width="23" height="33" viewBox="0 0 23 33" fill="none" xmlns="http://www.w3.org/2000/svg">
<path d="M22.9986 18.6177C23.0016 20.1265 22.4594 21.5866 21.47 22.7334L21.4183 22.7874L20.7616 23.4409L20.7289 23.4652L13.7861 30.3517L11.4973 32.6229L7.38281 28.5423L9.67164 26.2684L11.4973 28.0805L14.8651 24.7372L18.549 21.0887L19.0695 20.5729C19.4873 20.045 19.7236 19.3984 19.7437 18.7277C19.7638 18.0571 19.5666 17.3977 19.1812 16.8461C18.9151 16.4693 18.5715 16.1527 18.173 15.9171C17.4804 15.517 16.661 15.3907 15.8785 15.5634C15.096 15.7362 14.4081 16.1952 13.9523 16.8488C13.8764 16.51 13.7762 16.177 13.6526 15.8523C13.3668 15.0922 12.9622 14.3814 12.4537 13.7459C13.6094 12.7807 15.0732 12.2534 16.5845 12.2578C16.8106 12.2578 17.0313 12.2578 17.2493 12.2902C18.8271 12.452 20.2884 13.188 21.3503 14.3557C22.4123 15.5235 22.9996 17.0402 22.9986 18.6123V18.6177Z" fill="#229BD8"/>
<path d="M12.5885 16.9175C12.3313 16.001 11.8698 15.1534 11.238 14.4373C10.6062 13.7211 9.82018 13.1547 8.938 12.7798C8.05583 12.4049 7.09999 12.2312 6.141 12.2713C5.18201 12.3114 4.24435 12.5644 3.3972 13.0117C2.55004 13.4589 1.81502 14.089 1.24636 14.8554C0.677696 15.6217 0.289905 16.5049 0.111598 17.4396C-0.0667083 18.3744 -0.0309806 19.3369 0.216145 20.2561C0.463271 21.1754 0.915489 22.0279 1.53943 22.7508L2.24516 23.4475L4.11982 25.3082L6.40865 27.5767L7.63481 26.3614L8.7111 25.3082L10.5858 23.4475L11.2915 22.7508C11.3651 22.6671 11.4386 22.5779 11.5067 22.4807C12.3665 21.3719 12.8312 20.0119 12.8283 18.6135C12.8251 18.0401 12.7445 17.4697 12.5885 16.9175ZM8.88004 20.593L8.39775 21.0737L6.40865 23.037L4.44407 21.0899L3.92091 20.5687C3.55195 20.1045 3.32261 19.5466 3.25924 18.959C3.19587 18.3714 3.30104 17.778 3.56266 17.247C3.82428 16.716 4.23174 16.2689 4.73823 15.9571C5.24472 15.6454 5.82968 15.4815 6.4259 15.4844C7.02213 15.4874 7.60542 15.6569 8.10878 15.9737C8.61213 16.2904 9.01511 16.7415 9.27142 17.275C9.52773 17.8085 9.62697 18.4029 9.55774 18.9899C9.48851 19.5768 9.25361 20.1325 8.88004 20.593Z" fill="#229BD8"/>
<path fill-rule="evenodd" clip-rule="evenodd" d="M11.3918 4.0424C9.67597 4.0424 8.28501 5.421 8.28501 7.12158V11.5693L7.61734 11.459C6.69139 11.306 5.74396 11.3436 4.83301 11.5693V7.12158C4.83301 3.53146 7.76948 0.621094 11.3918 0.621094C15.0141 0.621094 17.9506 3.53146 17.9506 7.12158V11.5693C17.0397 11.3436 16.0922 11.306 15.1663 11.459L14.4986 11.5693V7.12158C14.4986 5.421 13.1076 4.0424 11.3918 4.0424Z" fill="#54BAED"/>
</svg>
